<svg class="img-fluid" id="outputsvg"
    xmlns="http://www.w3.org/2000/svg" style="transform: matrix(1, 0, 0, 1, -1, 0); transform-origin: 50% 50% 0px; cursor: move; max-height: none; transition: none 0s ease 0s;" width="1000" height="1000" viewBox="0 0 10000 10000">
    <g id="l2WUMOUhFWwUj8RBhNm97Bn" fill="rgb(243,149,251)" style="transform: none;">
        <g style="transform: none;">
            <path id="pnLNKDIDq" d="M4840 6650 c0 -786 3 -1430 6 -1430 4 0 13 8 20 18 11 14 13 -264 14 -1660 l0 -1678 795 0 795 0 -7 911 c-4 551 -3 910 3 908 5 -2 56 -30 114 -61 253 -137 530 -237 770 -280 101 -18 550 -18 685 0 605 81 1038 331 1318 762 217 335 330 749 357 1308 5 103 9 737 10 1410 l0 1222 -805 0 -805 0 0 -1247 c0 -783 -4 -1293 -11 -1368 -37 -430 -187 -657 -488 -737 -55 -15 -120 -22 -236 -25 -140 -5 -171 -3 -249 16 -278 67 -493 282 -590 589 -57 181 -56 159 -56 1520 l0 1252 -820 0 -820 0 0 -1430z"></path>
        </g>
    </g>
    <g id="l71LfduWpxDdsBvVMnomjGu" fill="rgb(156,139,241)" style="transform: none;">
        <g style="transform: none;">
            <path id="pBNRviJ4F" d="M930 5978 c-398 -1157 -752 -2185 -786 -2286 l-64 -182 862 2 861 3 362 1227 c199 675 365 1231 368 1235 4 4 11 2 16 -3 5 -5 158 -542 340 -1194 183 -652 337 -1202 343 -1222 l11 -38 571 0 571 0 243 868 242 867 0 1413 0 1412 -164 0 -164 0 -20 -57 c-11 -32 -173 -510 -361 -1062 -188 -552 -345 -1011 -350 -1019 -5 -8 -10 -11 -13 -6 -2 5 -164 489 -358 1077 l-354 1067 -716 0 -716 0 -724 -2102z"></path>
        </g>
    </g>
</svg>